<svg width="250" height="61" viewBox="0 0 250 61" fill="none" xmlns="http://www.w3.org/2000/svg">
<g clip-path="url(#clip0_2590_163)">
<path d="M14.7542 14.2839H26.9944L26.1025 13.6589C23.9115 12.128 21.2991 11.2993 18.6236 11.2993H11.7697V18.1532C11.7697 20.8288 12.5913 23.4412 14.1292 25.6322L14.7542 26.524V14.2839Z" fill="#724122"/>
<path d="M14.7542 33.8696L14.1292 34.7615C12.5983 36.9525 11.7697 39.5649 11.7697 42.2404V49.0943H18.6236C21.2991 49.0943 23.9115 48.2727 26.1025 46.7348L26.9944 46.1098H14.7542V33.8696Z" fill="#724122"/>
<path d="M55.1334 39.7965C56.1657 36.5592 57.816 33.5536 59.993 30.9482L60.618 30.1968L59.993 29.4454C57.816 26.8401 56.1657 23.8345 55.1334 20.5971L54.7612 19.4384V15.5058C54.7612 12.9005 54.9508 10.2951 55.323 7.71789L55.6952 5.16171L53.139 5.5339C50.5618 5.90609 47.9565 6.0957 45.3511 6.0957H41.4185L40.2528 5.72351C37.0154 4.6912 34.0168 3.04092 31.4115 0.863956L30.6601 0.231934L29.9087 0.863956C27.3034 3.04092 24.3048 4.6912 21.0674 5.72351L19.9017 6.0957H15.9691C13.3638 6.0957 10.7584 5.90609 8.18117 5.5339L5.62499 5.16171L5.99718 7.71789C6.36937 10.2951 6.55898 12.9005 6.55898 15.5058V19.4384L6.18679 20.5971C5.15449 23.8345 3.50421 26.8401 1.32724 29.4454L0.70224 30.1968L1.33426 30.9482C3.51123 33.5536 5.16151 36.5522 6.19381 39.7895L6.566 40.9552V44.8878C6.566 47.4932 6.3764 50.0985 6.00421 52.6758L5.63202 55.2319L8.1882 54.8597C10.7654 54.4875 13.3708 54.2979 15.9761 54.2979H19.9087L21.0744 54.6701C24.3258 55.7024 27.3034 57.3387 29.9157 59.5297L30.6671 60.1547L31.4185 59.5297C34.0379 57.3387 37.0084 55.7024 40.2598 54.6701L41.4256 54.2979H45.3581C47.9635 54.2979 50.5688 54.4875 53.1461 54.8597L55.7022 55.2319L55.3301 52.6758C54.9579 50.0985 54.7682 47.4932 54.7682 44.8878V40.9552L55.1404 39.7965H55.1334ZM53.2725 52.8092H41.4185L40.2528 52.437C37.0014 51.4047 34.0239 49.7684 31.4115 47.5774L30.6601 46.9524L29.9087 47.5774C27.2893 49.7684 24.3188 51.4047 21.0674 52.437L19.9087 52.8092H8.04775V40.9552L8.41994 39.7965C9.45224 36.5451 11.0885 33.5676 13.2795 30.9552L13.9045 30.2038L13.2795 29.4524C11.0885 26.8331 9.45224 23.8626 8.41994 20.6111L8.04775 19.4454V7.58446H19.9017L21.0674 7.95665C24.3188 8.98896 27.2963 10.6252 29.9087 12.8162L30.6601 13.4412L31.4115 12.8162C34.0309 10.6252 37.0014 8.98896 40.2528 7.95665L41.4185 7.58446H53.2725V19.4384L52.9003 20.6041C51.868 23.8555 50.2317 26.8331 48.0407 29.4454L47.4157 30.1968L48.0407 30.9482C50.2317 33.5676 51.868 36.5381 52.9003 39.7895L53.2725 40.9552V52.8092ZM57.5913 30.1968C56.1587 32.0367 54.9579 34.0241 54.0168 36.1449C53.0758 34.0241 51.882 32.0367 50.4424 30.1968C51.882 28.3569 53.0758 26.3696 54.0168 24.2488C54.9579 26.3696 56.1517 28.3569 57.5913 30.1968ZM30.6601 3.26564C32.5 4.69823 34.4874 5.89907 36.6081 6.84008C34.4874 7.78109 32.5 8.97491 30.6601 10.4145C28.8202 8.97491 26.8329 7.78109 24.7121 6.84008C26.8329 5.89907 28.8202 4.70525 30.6601 3.26564ZM3.73595 30.1968C5.17555 28.3569 6.36937 26.3696 7.31039 24.2488C8.2514 26.3696 9.44522 28.3569 10.8848 30.1968C9.45224 32.0367 8.2514 34.0241 7.31039 36.1449C6.36937 34.0241 5.17555 32.0367 3.73595 30.1968ZM30.6601 57.128C28.8202 55.6884 26.8329 54.4946 24.7121 53.5536C26.8329 52.6125 28.8202 51.4187 30.6601 49.9791C32.5 51.4187 34.4874 52.6125 36.6081 53.5536C34.4874 54.4946 32.5 55.6884 30.6601 57.128Z" fill="#9B582E"/>
<path d="M49.5506 12.7949V11.3062H42.6966C40.0211 11.3062 37.4087 12.1278 35.2177 13.6657L34.3258 14.2907H46.5028C46.0323 20.2317 42.7739 25.3932 38.0337 28.4761C35.2107 26.9733 31.8329 26.0744 28.4199 25.9621C27.9494 25.948 27.486 25.8988 27.0225 25.8427L24.4733 25.5196L24.684 27.8019C24.8315 29.4031 24.8315 31.0112 24.684 32.6053L24.4733 34.8876L27.0225 34.5646C27.486 34.5084 27.9494 34.4592 28.4199 34.4452C31.8329 34.3328 35.2107 33.434 38.0337 31.9312C42.7739 35.007 46.0323 40.1755 46.5028 46.1165H34.3258L35.2177 46.7415C37.4087 48.2724 40.0211 49.1011 42.6966 49.1011H49.5506V47.6123C49.5506 40.4915 46.0955 34.1643 40.7725 30.2106C46.0955 26.264 49.5506 19.9297 49.5506 12.809V12.7949ZM27.6896 31.6854V28.7008C30.0772 28.7008 32.5843 29.368 34.684 30.1896C32.5772 31.0112 30.0772 31.6783 27.6896 31.6783V31.6854Z" fill="#724122"/>
<path d="M73.8343 28.0339L82.4649 19.1855H86.9312L76.9101 29.2277L86.9944 41.3625H82.5141L74.5295 31.4959L73.8413 32.1841V41.3625H70.4916V19.1855H73.8413V28.0339H73.8343Z" fill="#9B582E"/>
<path d="M97.493 31.9103L104.361 41.3625H100.267L93.9326 32.2825H93.3287V41.3625H89.9789V19.1855H93.8975C96.8259 19.1855 98.9466 19.7333 100.246 20.8358C101.685 22.0648 102.402 23.6799 102.402 25.6884C102.402 27.2614 101.952 28.6097 101.053 29.7403C100.154 30.8709 98.9677 31.5943 97.493 31.9103ZM93.3287 29.3681H94.3891C97.5562 29.3681 99.1433 28.1603 99.1433 25.7375C99.1433 23.4693 97.5983 22.3316 94.5155 22.3316H93.3216V29.3681H93.3287Z" fill="#9B582E"/>
<path d="M111.032 19.1855V41.3625H107.683V19.1855H111.032Z" fill="#9B582E"/>
<path d="M128.272 22.4929L125.555 24.1011C125.049 23.2232 124.565 22.6474 124.101 22.3805C123.624 22.0716 123.006 21.9241 122.247 21.9241C121.32 21.9241 120.548 22.1839 119.937 22.7106C119.326 23.2303 119.017 23.8763 119.017 24.6628C119.017 25.7443 119.824 26.6151 121.433 27.2752L123.645 28.1811C125.442 28.9114 126.763 29.7963 127.591 30.8426C128.427 31.889 128.841 33.1741 128.841 34.698C128.841 36.7345 128.16 38.4199 126.805 39.7541C125.435 41.0954 123.736 41.7626 121.706 41.7626C119.782 41.7626 118.195 41.1938 116.938 40.0561C115.702 38.9185 114.93 37.3103 114.628 35.2457L118.02 34.5013C118.174 35.8005 118.441 36.7064 118.827 37.205C119.515 38.16 120.52 38.6446 121.84 38.6446C122.886 38.6446 123.75 38.2935 124.438 37.5982C125.126 36.896 125.471 36.0112 125.471 34.9437C125.471 34.5154 125.407 34.1151 125.288 33.757C125.169 33.3988 124.979 33.0687 124.726 32.7668C124.473 32.4648 124.143 32.1839 123.743 31.9171C123.343 31.6572 122.865 31.4044 122.303 31.1657L120.162 30.2738C117.128 28.9887 115.611 27.1137 115.611 24.6418C115.611 22.9775 116.25 21.58 117.521 20.4634C118.792 19.3328 120.379 18.771 122.275 18.771C124.831 18.771 126.826 20.014 128.265 22.507L128.272 22.4929Z" fill="#9B582E"/>
<path d="M139.417 22.3316V41.3625H136.067V22.3316H130.969V19.1855H144.501V22.3316H139.417Z" fill="#9B582E"/>
<path d="M154.024 25.2949L146.713 41.3623H143.111L154.08 17.7949L164.663 41.3623H161.004L154.024 25.2949Z" fill="#9B582E"/>
<path d="M170.787 19.1855V38.2164H177.303V41.3625H167.437V19.1855H170.787Z" fill="#9B582E"/>
<path d="M183.827 19.1855V38.2164H190.344V41.3625H180.478V19.1855H183.827Z" fill="#9B582E"/>
<path d="M196.868 19.1855V41.3625H193.518V19.1855H196.868Z" fill="#9B582E"/>
<path d="M202.191 41.3624V17.6826L218.364 34.5998V19.1924H221.713V42.7177L205.541 25.8427V41.3694H202.191V41.3624Z" fill="#9B582E"/>
<path d="M226.117 30.1755C226.117 27.0575 227.261 24.3749 229.551 22.1348C231.826 19.8946 234.565 18.771 237.767 18.771C240.969 18.771 243.638 19.9016 245.899 22.1628C248.167 24.4241 249.305 27.1348 249.305 30.3089C249.305 33.4831 248.167 36.2008 245.885 38.4269C243.596 40.66 240.836 41.7766 237.598 41.7766C234.733 41.7766 232.163 40.7864 229.888 38.8061C227.381 36.6151 226.124 33.7429 226.124 30.1895L226.117 30.1755ZM229.494 30.2176C229.494 32.6685 230.316 34.6839 231.966 36.264C233.603 37.844 235.492 38.6305 237.64 38.6305C239.965 38.6305 241.931 37.823 243.525 36.2148C245.126 34.5856 245.927 32.6053 245.927 30.2668C245.927 27.9283 245.133 25.9199 243.56 24.3187C241.987 22.7106 240.049 21.903 237.732 21.903C235.414 21.903 233.476 22.7106 231.889 24.3187C230.302 25.9058 229.501 27.8721 229.501 30.2106L229.494 30.2176Z" fill="#9B582E"/>
<path d="M240.632 30.2177C239.438 31.7486 238.448 33.3989 237.662 35.1616C236.882 33.3989 235.885 31.7486 234.691 30.2177C235.885 28.6868 236.875 27.0366 237.662 25.2739C238.441 27.0366 239.438 28.6868 240.632 30.2177Z" fill="#9B582E"/>
<path d="M156.854 37.7671C155.66 39.298 154.67 40.9482 153.883 42.7109C153.104 40.9482 152.107 39.298 150.913 37.7671C152.107 36.2362 153.097 34.5859 153.883 32.8232C154.663 34.5859 155.66 36.2362 156.854 37.7671Z" fill="#9B582E"/>
</g>
<defs>
<clipPath id="clip0_2590_163">
<rect width="250" height="60.3933" fill="white"/>
</clipPath>
</defs>
</svg>
